# xmcd CD database file
#
# Track frame offsets:
#	150
#	21859
#	52398
#	66905
#	97863
#	124011
#	151182
#	173391
#	203395
#	215404
#	234044
#	264902
#
# Disc length: 3726 seconds
#
# Revision: 6
# Processed by: cddbd v1.5.2PL0 Copyright (c) Steve Scherf et al.
# Submitted via: CDex 1.70beta2
#
DISCID=8f0e8c0c
DTITLE=Relaxation - Pure Tranquility
DYEAR=2006
DGENRE=New Age
TTITLE0=Rio Sunrise
TTITLE1=Tropical Storm
TTITLE2=Pelotas
TTITLE3=Sao Paulo
TTITLE4=Macapa
TTITLE5=Glass Falls
TTITLE6=Rio Sunset
TTITLE7=Belo Horizonte
TTITLE8=Elegy For The Rainforest
TTITLE9=Amazon By Canoe
TTITLE10=Carnivale
TTITLE11=Rio Nights
EXTD=YEAR: 2006
EXTT0=
EXTT1=
EXTT2=
EXTT3=
EXTT4=
EXTT5=
EXTT6=
EXTT7=
EXTT8=
EXTT9=
EXTT10=
EXTT11=
PLAYORDER=
